<mxfile host="app.diagrams.net" modified="2022-12-14T09:59:23.853Z" agent="5.0 (Windows NT 10.0; Win64; x64) AppleWebKit/537.36 (KHTML, like Gecko) Chrome/108.0.0.0 Safari/537.36" etag="J0oNUas0xvOt4gbB0l75" version="20.6.2" type="github">
  <diagram id="C5RBs43oDa-KdzZeNtuy" name="带宽回收模式(无聚合)">
    <mxGraphModel dx="1753" dy="400" grid="1" gridSize="10" guides="1" tooltips="1" connect="1" arrows="1" fold="1" page="1" pageScale="1" pageWidth="827" pageHeight="1169" background="#283618" math="0" shadow="0">
      <root>
        <mxCell id="WIyWlLk6GJQsqaUBKTNV-0" />
        <mxCell id="WIyWlLk6GJQsqaUBKTNV-1" parent="WIyWlLk6GJQsqaUBKTNV-0" />
        <mxCell id="WIyWlLk6GJQsqaUBKTNV-2" value="" style="rounded=0;html=1;jettySize=auto;orthogonalLoop=1;fontSize=11;endArrow=block;endFill=0;endSize=8;strokeWidth=1;shadow=0;labelBackgroundColor=none;edgeStyle=orthogonalEdgeStyle;strokeColor=#DDA15E;fontColor=#FEFAE0;" parent="WIyWlLk6GJQsqaUBKTNV-1" source="WIyWlLk6GJQsqaUBKTNV-3" target="WIyWlLk6GJQsqaUBKTNV-6" edge="1">
          <mxGeometry relative="1" as="geometry" />
        </mxCell>
        <mxCell id="WIyWlLk6GJQsqaUBKTNV-3" value="带宽回收模式(无聚合)" style="rounded=1;whiteSpace=wrap;html=1;fontSize=12;glass=0;strokeWidth=1;shadow=0;fillColor=#BC6C25;strokeColor=#DDA15E;fontColor=#FEFAE0;" parent="WIyWlLk6GJQsqaUBKTNV-1" vertex="1">
          <mxGeometry x="160" y="80" width="120" height="40" as="geometry" />
        </mxCell>
        <mxCell id="WIyWlLk6GJQsqaUBKTNV-4" value="N" style="rounded=0;html=1;jettySize=auto;orthogonalLoop=1;fontSize=11;endArrow=block;endFill=0;endSize=8;strokeWidth=1;shadow=0;labelBackgroundColor=none;edgeStyle=orthogonalEdgeStyle;strokeColor=#DDA15E;fontColor=#FEFAE0;" parent="WIyWlLk6GJQsqaUBKTNV-1" source="WIyWlLk6GJQsqaUBKTNV-6" target="jYcGKKyAP8I1KN-inCQs-3" edge="1">
          <mxGeometry y="20" relative="1" as="geometry">
            <mxPoint as="offset" />
            <mxPoint x="220" y="330" as="targetPoint" />
          </mxGeometry>
        </mxCell>
        <mxCell id="WIyWlLk6GJQsqaUBKTNV-5" value="Y" style="edgeStyle=orthogonalEdgeStyle;rounded=0;html=1;jettySize=auto;orthogonalLoop=1;fontSize=11;endArrow=block;endFill=0;endSize=8;strokeWidth=1;shadow=0;labelBackgroundColor=none;strokeColor=#DDA15E;fontColor=#FEFAE0;" parent="WIyWlLk6GJQsqaUBKTNV-1" source="WIyWlLk6GJQsqaUBKTNV-6" target="jYcGKKyAP8I1KN-inCQs-70" edge="1">
          <mxGeometry y="10" relative="1" as="geometry">
            <mxPoint as="offset" />
            <mxPoint x="1210" y="210" as="targetPoint" />
          </mxGeometry>
        </mxCell>
        <mxCell id="WIyWlLk6GJQsqaUBKTNV-6" value="网吧接入Vlan&lt;br&gt;1或空" style="rhombus;whiteSpace=wrap;html=1;shadow=0;fontFamily=Helvetica;fontSize=12;align=center;strokeWidth=1;spacing=6;spacingTop=-4;fillColor=#BC6C25;strokeColor=#DDA15E;fontColor=#FEFAE0;" parent="WIyWlLk6GJQsqaUBKTNV-1" vertex="1">
          <mxGeometry x="170" y="170" width="100" height="80" as="geometry" />
        </mxCell>
        <mxCell id="jYcGKKyAP8I1KN-inCQs-1" value="端口初始化：企业模式 、运营商模式且首次配置" style="text;whiteSpace=wrap;html=1;fontColor=#FEFAE0;" vertex="1" parent="WIyWlLk6GJQsqaUBKTNV-1">
          <mxGeometry x="30" y="10" width="290" height="30" as="geometry" />
        </mxCell>
        <mxCell id="jYcGKKyAP8I1KN-inCQs-10" value="" style="edgeStyle=orthogonalEdgeStyle;rounded=0;orthogonalLoop=1;jettySize=auto;html=1;strokeColor=#DDA15E;fontColor=#FEFAE0;fillColor=#BC6C25;" edge="1" parent="WIyWlLk6GJQsqaUBKTNV-1" source="jYcGKKyAP8I1KN-inCQs-3" target="jYcGKKyAP8I1KN-inCQs-9">
          <mxGeometry relative="1" as="geometry" />
        </mxCell>
        <mxCell id="jYcGKKyAP8I1KN-inCQs-3" value="配置Vlan" style="rounded=1;whiteSpace=wrap;html=1;strokeColor=#DDA15E;fontColor=#FEFAE0;fillColor=#BC6C25;" vertex="1" parent="WIyWlLk6GJQsqaUBKTNV-1">
          <mxGeometry x="160" y="300" width="120" height="40" as="geometry" />
        </mxCell>
        <mxCell id="jYcGKKyAP8I1KN-inCQs-6" value="&lt;div style=&quot;color: rgb(212, 212, 212); font-family: Consolas, &amp;quot;Courier New&amp;quot;, monospace; font-size: 14px;&quot;&gt;vlan database&lt;/div&gt;&lt;div style=&quot;color: rgb(212, 212, 212); font-family: Consolas, &amp;quot;Courier New&amp;quot;, monospace; font-size: 14px;&quot;&gt;vlan 网吧接入vlan&lt;/div&gt;&lt;div style=&quot;color: rgb(212, 212, 212); font-family: Consolas, &amp;quot;Courier New&amp;quot;, monospace; font-size: 14px;&quot;&gt;vlan 带宽回收vlan //如果有&lt;/div&gt;" style="shape=note;size=20;whiteSpace=wrap;html=1;strokeColor=#DDA15E;fontColor=#FEFAE0;fillColor=#BC6C25;" vertex="1" parent="WIyWlLk6GJQsqaUBKTNV-1">
          <mxGeometry x="-120" y="280" width="200" height="80" as="geometry" />
        </mxCell>
        <mxCell id="jYcGKKyAP8I1KN-inCQs-15" value="" style="edgeStyle=orthogonalEdgeStyle;rounded=0;orthogonalLoop=1;jettySize=auto;html=1;strokeColor=#DDA15E;fontColor=#FEFAE0;fillColor=#BC6C25;" edge="1" parent="WIyWlLk6GJQsqaUBKTNV-1" source="jYcGKKyAP8I1KN-inCQs-9" target="jYcGKKyAP8I1KN-inCQs-14">
          <mxGeometry relative="1" as="geometry" />
        </mxCell>
        <mxCell id="jYcGKKyAP8I1KN-inCQs-9" value="端口描述" style="whiteSpace=wrap;html=1;fillColor=#BC6C25;strokeColor=#DDA15E;fontColor=#FEFAE0;rounded=1;" vertex="1" parent="WIyWlLk6GJQsqaUBKTNV-1">
          <mxGeometry x="160" y="430" width="120" height="40" as="geometry" />
        </mxCell>
        <mxCell id="jYcGKKyAP8I1KN-inCQs-11" value="&lt;div style=&quot;color: rgb(212, 212, 212); font-family: Consolas, &amp;quot;Courier New&amp;quot;, monospace; font-size: 14px;&quot;&gt;&lt;br&gt;&lt;/div&gt;&lt;div style=&quot;color: rgb(212, 212, 212); font-family: Consolas, &amp;quot;Courier New&amp;quot;, monospace; font-size: 14px;&quot;&gt;&lt;br&gt;&lt;/div&gt;&lt;div style=&quot;color: rgb(212, 212, 212); font-family: Consolas, &amp;quot;Courier New&amp;quot;, monospace; font-size: 14px;&quot;&gt;interface eth-0-%s&lt;/div&gt;&lt;div style=&quot;color: rgb(212, 212, 212); font-family: Consolas, &amp;quot;Courier New&amp;quot;, monospace; font-size: 14px;&quot;&gt;no description&lt;/div&gt;&lt;div style=&quot;color: rgb(212, 212, 212); font-family: Consolas, &amp;quot;Courier New&amp;quot;, monospace; font-size: 14px;&quot;&gt;description ？？？ //如果有&lt;/div&gt;&lt;div style=&quot;color: rgb(212, 212, 212); font-family: Consolas, &amp;quot;Courier New&amp;quot;, monospace; font-size: 14px;&quot;&gt;&lt;br&gt;&lt;/div&gt;&lt;div style=&quot;color: rgb(212, 212, 212); font-family: Consolas, &amp;quot;Courier New&amp;quot;, monospace; font-size: 14px;&quot;&gt;&lt;br&gt;&lt;/div&gt;" style="shape=note;size=20;whiteSpace=wrap;html=1;strokeColor=#DDA15E;fontColor=#FEFAE0;fillColor=#BC6C25;" vertex="1" parent="WIyWlLk6GJQsqaUBKTNV-1">
          <mxGeometry x="-130" y="405" width="210" height="70" as="geometry" />
        </mxCell>
        <mxCell id="jYcGKKyAP8I1KN-inCQs-19" value="" style="edgeStyle=orthogonalEdgeStyle;rounded=0;orthogonalLoop=1;jettySize=auto;html=1;strokeColor=#DDA15E;fontColor=#FEFAE0;fillColor=#BC6C25;" edge="1" parent="WIyWlLk6GJQsqaUBKTNV-1" source="jYcGKKyAP8I1KN-inCQs-14" target="jYcGKKyAP8I1KN-inCQs-18">
          <mxGeometry relative="1" as="geometry">
            <Array as="points">
              <mxPoint x="320" y="550" />
              <mxPoint x="320" y="550" />
            </Array>
          </mxGeometry>
        </mxCell>
        <mxCell id="jYcGKKyAP8I1KN-inCQs-20" value="Y" style="edgeLabel;html=1;align=center;verticalAlign=middle;resizable=0;points=[];fontColor=#FEFAE0;" vertex="1" connectable="0" parent="jYcGKKyAP8I1KN-inCQs-19">
          <mxGeometry x="0.3369" relative="1" as="geometry">
            <mxPoint x="-13" as="offset" />
          </mxGeometry>
        </mxCell>
        <mxCell id="jYcGKKyAP8I1KN-inCQs-22" value="" style="edgeStyle=orthogonalEdgeStyle;rounded=0;orthogonalLoop=1;jettySize=auto;html=1;strokeColor=#DDA15E;fontColor=#FEFAE0;fillColor=#BC6C25;" edge="1" parent="WIyWlLk6GJQsqaUBKTNV-1" source="jYcGKKyAP8I1KN-inCQs-14" target="jYcGKKyAP8I1KN-inCQs-21">
          <mxGeometry relative="1" as="geometry" />
        </mxCell>
        <mxCell id="jYcGKKyAP8I1KN-inCQs-23" value="N" style="edgeLabel;html=1;align=center;verticalAlign=middle;resizable=0;points=[];fontColor=#FEFAE0;" vertex="1" connectable="0" parent="jYcGKKyAP8I1KN-inCQs-22">
          <mxGeometry x="-0.2683" y="-1" relative="1" as="geometry">
            <mxPoint as="offset" />
          </mxGeometry>
        </mxCell>
        <mxCell id="jYcGKKyAP8I1KN-inCQs-14" value="需要初始化" style="rhombus;whiteSpace=wrap;html=1;fillColor=#BC6C25;strokeColor=#DDA15E;fontColor=#FEFAE0;rounded=1;" vertex="1" parent="WIyWlLk6GJQsqaUBKTNV-1">
          <mxGeometry x="180" y="510" width="80" height="80" as="geometry" />
        </mxCell>
        <mxCell id="jYcGKKyAP8I1KN-inCQs-24" style="edgeStyle=orthogonalEdgeStyle;rounded=0;orthogonalLoop=1;jettySize=auto;html=1;entryX=1;entryY=0.5;entryDx=0;entryDy=0;strokeColor=#DDA15E;fontColor=#FEFAE0;fillColor=#BC6C25;" edge="1" parent="WIyWlLk6GJQsqaUBKTNV-1" source="jYcGKKyAP8I1KN-inCQs-18" target="jYcGKKyAP8I1KN-inCQs-21">
          <mxGeometry relative="1" as="geometry">
            <Array as="points">
              <mxPoint x="465" y="710" />
            </Array>
          </mxGeometry>
        </mxCell>
        <mxCell id="jYcGKKyAP8I1KN-inCQs-18" value="&lt;div style=&quot;color: rgb(212, 212, 212); font-family: Consolas, &amp;quot;Courier New&amp;quot;, monospace; font-size: 14px;&quot;&gt;&lt;/div&gt;&lt;font face=&quot;Consolas, Courier New, monospace&quot; color=&quot;#d4d4d4&quot;&gt;&lt;span style=&quot;font-size: 14px;&quot;&gt;用户选择的所有&lt;br&gt;物理口初始化&lt;/span&gt;&lt;/font&gt;" style="whiteSpace=wrap;html=1;fillColor=#BC6C25;strokeColor=#DDA15E;fontColor=#FEFAE0;rounded=1;" vertex="1" parent="WIyWlLk6GJQsqaUBKTNV-1">
          <mxGeometry x="400" y="525" width="120" height="60" as="geometry" />
        </mxCell>
        <mxCell id="jYcGKKyAP8I1KN-inCQs-31" value="" style="edgeStyle=orthogonalEdgeStyle;rounded=0;orthogonalLoop=1;jettySize=auto;html=1;strokeColor=#DDA15E;fontSize=10;fontColor=#FEFAE0;fillColor=#BC6C25;" edge="1" parent="WIyWlLk6GJQsqaUBKTNV-1" source="jYcGKKyAP8I1KN-inCQs-21" target="jYcGKKyAP8I1KN-inCQs-30">
          <mxGeometry relative="1" as="geometry" />
        </mxCell>
        <mxCell id="jYcGKKyAP8I1KN-inCQs-21" value="端口链路模式&lt;br&gt;环回口检测" style="whiteSpace=wrap;html=1;fillColor=#BC6C25;strokeColor=#DDA15E;fontColor=#FEFAE0;rounded=1;" vertex="1" parent="WIyWlLk6GJQsqaUBKTNV-1">
          <mxGeometry x="160" y="680" width="120" height="60" as="geometry" />
        </mxCell>
        <mxCell id="jYcGKKyAP8I1KN-inCQs-25" value="&lt;div style=&quot;color: rgb(212, 212, 212); font-family: Consolas, &amp;quot;Courier New&amp;quot;, monospace; font-size: 14px;&quot;&gt;switchport mode trunk&lt;/div&gt;&lt;div style=&quot;color: rgb(212, 212, 212); font-family: Consolas, &amp;quot;Courier New&amp;quot;, monospace; font-size: 14px;&quot;&gt;loopback-detect enable&lt;/div&gt;&lt;div style=&quot;color: rgb(212, 212, 212); font-family: Consolas, &amp;quot;Courier New&amp;quot;, monospace; font-size: 14px;&quot;&gt;loopback-detect action shutdown&lt;/div&gt;" style="shape=note;size=20;whiteSpace=wrap;html=1;strokeColor=#DDA15E;fontColor=#FEFAE0;fillColor=#BC6C25;" vertex="1" parent="WIyWlLk6GJQsqaUBKTNV-1">
          <mxGeometry x="-200" y="650" width="280" height="100" as="geometry" />
        </mxCell>
        <mxCell id="jYcGKKyAP8I1KN-inCQs-27" value="&lt;div style=&quot;color: rgb(212, 212, 212); font-family: Consolas, &amp;quot;Courier New&amp;quot;, monospace; font-size: 14px;&quot;&gt;no switchport&lt;/div&gt;&lt;div style=&quot;color: rgb(212, 212, 212); font-family: Consolas, &amp;quot;Courier New&amp;quot;, monospace; font-size: 14px;&quot;&gt;switchport&lt;/div&gt;&lt;div style=&quot;color: rgb(212, 212, 212); font-family: Consolas, &amp;quot;Courier New&amp;quot;, monospace; font-size: 14px;&quot;&gt;no static-channel-group&lt;/div&gt;&lt;div style=&quot;color: rgb(212, 212, 212); font-family: Consolas, &amp;quot;Courier New&amp;quot;, monospace; font-size: 14px;&quot;&gt;no channel-group&lt;/div&gt;" style="shape=note;size=20;whiteSpace=wrap;html=1;strokeColor=#DDA15E;fontColor=#FEFAE0;fillColor=#BC6C25;" vertex="1" parent="WIyWlLk6GJQsqaUBKTNV-1">
          <mxGeometry x="600" y="510" width="190" height="100" as="geometry" />
        </mxCell>
        <mxCell id="jYcGKKyAP8I1KN-inCQs-33" value="" style="edgeStyle=orthogonalEdgeStyle;rounded=0;orthogonalLoop=1;jettySize=auto;html=1;strokeColor=#DDA15E;fontSize=10;fontColor=#FEFAE0;fillColor=#BC6C25;" edge="1" parent="WIyWlLk6GJQsqaUBKTNV-1" source="jYcGKKyAP8I1KN-inCQs-30" target="jYcGKKyAP8I1KN-inCQs-32">
          <mxGeometry relative="1" as="geometry">
            <Array as="points">
              <mxPoint x="310" y="850" />
              <mxPoint x="310" y="850" />
            </Array>
          </mxGeometry>
        </mxCell>
        <mxCell id="jYcGKKyAP8I1KN-inCQs-37" value="Y" style="edgeLabel;html=1;align=center;verticalAlign=middle;resizable=0;points=[];fontSize=10;fontColor=#FEFAE0;" vertex="1" connectable="0" parent="jYcGKKyAP8I1KN-inCQs-33">
          <mxGeometry x="-0.2047" y="2" relative="1" as="geometry">
            <mxPoint as="offset" />
          </mxGeometry>
        </mxCell>
        <mxCell id="jYcGKKyAP8I1KN-inCQs-40" value="" style="edgeStyle=orthogonalEdgeStyle;rounded=0;orthogonalLoop=1;jettySize=auto;html=1;strokeColor=#DDA15E;fontSize=10;fontColor=#FEFAE0;fillColor=#BC6C25;" edge="1" parent="WIyWlLk6GJQsqaUBKTNV-1" source="jYcGKKyAP8I1KN-inCQs-30" target="jYcGKKyAP8I1KN-inCQs-39">
          <mxGeometry relative="1" as="geometry" />
        </mxCell>
        <mxCell id="jYcGKKyAP8I1KN-inCQs-30" value="企业模式" style="rhombus;whiteSpace=wrap;html=1;fillColor=#BC6C25;strokeColor=#DDA15E;fontColor=#FEFAE0;rounded=1;" vertex="1" parent="WIyWlLk6GJQsqaUBKTNV-1">
          <mxGeometry x="180" y="810" width="80" height="80" as="geometry" />
        </mxCell>
        <mxCell id="jYcGKKyAP8I1KN-inCQs-45" style="edgeStyle=orthogonalEdgeStyle;rounded=0;orthogonalLoop=1;jettySize=auto;html=1;entryX=1;entryY=0.5;entryDx=0;entryDy=0;strokeColor=#DDA15E;fontSize=10;fontColor=#FEFAE0;fillColor=#BC6C25;" edge="1" parent="WIyWlLk6GJQsqaUBKTNV-1" source="jYcGKKyAP8I1KN-inCQs-32" target="jYcGKKyAP8I1KN-inCQs-39">
          <mxGeometry relative="1" as="geometry">
            <Array as="points">
              <mxPoint x="410" y="1010" />
            </Array>
          </mxGeometry>
        </mxCell>
        <mxCell id="jYcGKKyAP8I1KN-inCQs-32" value="配置native vlan" style="whiteSpace=wrap;html=1;fillColor=#BC6C25;strokeColor=#DDA15E;fontColor=#FEFAE0;rounded=1;" vertex="1" parent="WIyWlLk6GJQsqaUBKTNV-1">
          <mxGeometry x="360" y="820" width="110" height="60" as="geometry" />
        </mxCell>
        <mxCell id="jYcGKKyAP8I1KN-inCQs-34" value="&lt;span style=&quot;font-size: 10px;&quot;&gt;switchport trunk native vlan 网吧接入vlan&lt;/span&gt;" style="shape=note;size=20;whiteSpace=wrap;html=1;strokeColor=#DDA15E;fontSize=10;fontColor=#FEFAE0;fillColor=#BC6C25;" vertex="1" parent="WIyWlLk6GJQsqaUBKTNV-1">
          <mxGeometry x="600" y="807.5" width="250" height="85" as="geometry" />
        </mxCell>
        <mxCell id="jYcGKKyAP8I1KN-inCQs-58" value="" style="edgeStyle=orthogonalEdgeStyle;rounded=0;orthogonalLoop=1;jettySize=auto;html=1;strokeColor=#DDA15E;fontSize=10;fontColor=#FEFAE0;fillColor=#BC6C25;" edge="1" parent="WIyWlLk6GJQsqaUBKTNV-1" source="jYcGKKyAP8I1KN-inCQs-39" target="jYcGKKyAP8I1KN-inCQs-57">
          <mxGeometry relative="1" as="geometry" />
        </mxCell>
        <mxCell id="jYcGKKyAP8I1KN-inCQs-39" value="配置trunk permit vlan" style="whiteSpace=wrap;html=1;fillColor=#BC6C25;strokeColor=#DDA15E;fontColor=#FEFAE0;rounded=1;" vertex="1" parent="WIyWlLk6GJQsqaUBKTNV-1">
          <mxGeometry x="160" y="980" width="120" height="60" as="geometry" />
        </mxCell>
        <mxCell id="jYcGKKyAP8I1KN-inCQs-41" value="switchport trunk allowed vlan add &quot;网吧接入vlan,带宽回收vlan&quot;//有带宽回收vlan&amp;nbsp;&lt;br&gt;switchport trunk allowed vlan remove 1" style="shape=note;size=20;whiteSpace=wrap;html=1;strokeColor=#DDA15E;fontSize=10;fontColor=#FEFAE0;fillColor=#BC6C25;" vertex="1" parent="WIyWlLk6GJQsqaUBKTNV-1">
          <mxGeometry x="-370" y="970" width="450" height="60" as="geometry" />
        </mxCell>
        <mxCell id="jYcGKKyAP8I1KN-inCQs-46" value="" style="endArrow=none;dashed=1;html=1;rounded=0;strokeColor=#DDA15E;fontSize=10;fontColor=#FEFAE0;fillColor=#BC6C25;entryX=0;entryY=0;entryDx=450;entryDy=40;entryPerimeter=0;" edge="1" parent="WIyWlLk6GJQsqaUBKTNV-1" source="jYcGKKyAP8I1KN-inCQs-39" target="jYcGKKyAP8I1KN-inCQs-41">
          <mxGeometry width="50" height="50" relative="1" as="geometry">
            <mxPoint x="390" y="920" as="sourcePoint" />
            <mxPoint x="80" y="1010" as="targetPoint" />
          </mxGeometry>
        </mxCell>
        <mxCell id="jYcGKKyAP8I1KN-inCQs-47" value="" style="endArrow=none;dashed=1;html=1;rounded=0;strokeColor=#DDA15E;fontSize=10;fontColor=#FEFAE0;fillColor=#BC6C25;entryX=1;entryY=0.5;entryDx=0;entryDy=0;" edge="1" parent="WIyWlLk6GJQsqaUBKTNV-1" source="jYcGKKyAP8I1KN-inCQs-34" target="jYcGKKyAP8I1KN-inCQs-32">
          <mxGeometry width="50" height="50" relative="1" as="geometry">
            <mxPoint x="390" y="920" as="sourcePoint" />
            <mxPoint x="440" y="870" as="targetPoint" />
          </mxGeometry>
        </mxCell>
        <mxCell id="jYcGKKyAP8I1KN-inCQs-49" value="" style="endArrow=none;dashed=1;html=1;rounded=0;strokeColor=#DDA15E;fontSize=10;fontColor=#FEFAE0;fillColor=#BC6C25;entryX=1;entryY=0.5;entryDx=0;entryDy=0;exitX=0;exitY=0.5;exitDx=0;exitDy=0;exitPerimeter=0;" edge="1" parent="WIyWlLk6GJQsqaUBKTNV-1" source="jYcGKKyAP8I1KN-inCQs-27">
          <mxGeometry width="50" height="50" relative="1" as="geometry">
            <mxPoint x="650" y="560" as="sourcePoint" />
            <mxPoint x="520" y="560" as="targetPoint" />
          </mxGeometry>
        </mxCell>
        <mxCell id="jYcGKKyAP8I1KN-inCQs-50" value="" style="endArrow=none;dashed=1;html=1;rounded=0;strokeColor=#DDA15E;fontSize=10;fontColor=#FEFAE0;fillColor=#BC6C25;exitX=0;exitY=0;exitDx=280;exitDy=60;exitPerimeter=0;entryX=0;entryY=0.5;entryDx=0;entryDy=0;" edge="1" parent="WIyWlLk6GJQsqaUBKTNV-1" source="jYcGKKyAP8I1KN-inCQs-25" target="jYcGKKyAP8I1KN-inCQs-21">
          <mxGeometry width="50" height="50" relative="1" as="geometry">
            <mxPoint x="270" y="710" as="sourcePoint" />
            <mxPoint x="320" y="660" as="targetPoint" />
          </mxGeometry>
        </mxCell>
        <mxCell id="jYcGKKyAP8I1KN-inCQs-53" value="" style="endArrow=none;dashed=1;html=1;rounded=0;strokeColor=#DDA15E;fontSize=10;fontColor=#FEFAE0;fillColor=#BC6C25;exitX=0;exitY=0;exitDx=210;exitDy=45;exitPerimeter=0;entryX=0;entryY=0.5;entryDx=0;entryDy=0;" edge="1" parent="WIyWlLk6GJQsqaUBKTNV-1" source="jYcGKKyAP8I1KN-inCQs-11" target="jYcGKKyAP8I1KN-inCQs-9">
          <mxGeometry width="50" height="50" relative="1" as="geometry">
            <mxPoint x="270" y="540" as="sourcePoint" />
            <mxPoint x="320" y="490" as="targetPoint" />
          </mxGeometry>
        </mxCell>
        <mxCell id="jYcGKKyAP8I1KN-inCQs-54" value="" style="endArrow=none;dashed=1;html=1;rounded=0;strokeColor=#DDA15E;fontSize=10;fontColor=#FEFAE0;fillColor=#BC6C25;entryX=0;entryY=0.5;entryDx=0;entryDy=0;exitX=1.025;exitY=0.5;exitDx=0;exitDy=0;exitPerimeter=0;" edge="1" parent="WIyWlLk6GJQsqaUBKTNV-1" source="jYcGKKyAP8I1KN-inCQs-6" target="jYcGKKyAP8I1KN-inCQs-3">
          <mxGeometry width="50" height="50" relative="1" as="geometry">
            <mxPoint x="270" y="450" as="sourcePoint" />
            <mxPoint x="320" y="400" as="targetPoint" />
          </mxGeometry>
        </mxCell>
        <mxCell id="jYcGKKyAP8I1KN-inCQs-57" value="配置vlanif" style="whiteSpace=wrap;html=1;fillColor=#009900;strokeColor=#DDA15E;fontColor=#FEFAE0;rounded=1;" vertex="1" parent="WIyWlLk6GJQsqaUBKTNV-1">
          <mxGeometry x="160" y="1120" width="120" height="60" as="geometry" />
        </mxCell>
        <mxCell id="jYcGKKyAP8I1KN-inCQs-59" value="&lt;span style=&quot;font-size: 10px;&quot;&gt;interface vlan 网吧接入vlan &lt;br&gt;dhcp server 1&lt;br&gt;&amp;nbsp;ip address ip mask&lt;/span&gt;" style="shape=note;size=20;whiteSpace=wrap;html=1;strokeColor=#DDA15E;fontSize=10;fontColor=#FEFAE0;fillColor=#009900;" vertex="1" parent="WIyWlLk6GJQsqaUBKTNV-1">
          <mxGeometry x="-160" y="1109" width="240" height="60" as="geometry" />
        </mxCell>
        <mxCell id="jYcGKKyAP8I1KN-inCQs-60" value="" style="endArrow=none;dashed=1;html=1;rounded=0;strokeColor=#DDA15E;fontSize=10;fontColor=#FEFAE0;fillColor=#BC6C25;entryX=0;entryY=0;entryDx=240;entryDy=40;entryPerimeter=0;" edge="1" parent="WIyWlLk6GJQsqaUBKTNV-1" source="jYcGKKyAP8I1KN-inCQs-57" target="jYcGKKyAP8I1KN-inCQs-59">
          <mxGeometry width="50" height="50" relative="1" as="geometry">
            <mxPoint x="150" y="1090" as="sourcePoint" />
            <mxPoint x="60" y="1090" as="targetPoint" />
          </mxGeometry>
        </mxCell>
        <mxCell id="jYcGKKyAP8I1KN-inCQs-77" style="edgeStyle=orthogonalEdgeStyle;rounded=0;orthogonalLoop=1;jettySize=auto;html=1;entryX=0;entryY=0.5;entryDx=0;entryDy=0;entryPerimeter=0;strokeColor=#DDA15E;fontSize=10;fontColor=#FEFAE0;fillColor=#BC6C25;" edge="1" parent="WIyWlLk6GJQsqaUBKTNV-1" source="jYcGKKyAP8I1KN-inCQs-61" target="jYcGKKyAP8I1KN-inCQs-65">
          <mxGeometry relative="1" as="geometry" />
        </mxCell>
        <mxCell id="jYcGKKyAP8I1KN-inCQs-78" value="Y" style="edgeLabel;html=1;align=center;verticalAlign=middle;resizable=0;points=[];fontSize=10;fontColor=#FEFAE0;" vertex="1" connectable="0" parent="jYcGKKyAP8I1KN-inCQs-77">
          <mxGeometry x="-0.2194" y="3" relative="1" as="geometry">
            <mxPoint as="offset" />
          </mxGeometry>
        </mxCell>
        <mxCell id="jYcGKKyAP8I1KN-inCQs-84" value="" style="edgeStyle=orthogonalEdgeStyle;rounded=0;orthogonalLoop=1;jettySize=auto;html=1;strokeColor=#DDA15E;fontSize=10;fontColor=#FEFAE0;fillColor=#BC6C25;" edge="1" parent="WIyWlLk6GJQsqaUBKTNV-1" source="jYcGKKyAP8I1KN-inCQs-61" target="jYcGKKyAP8I1KN-inCQs-83">
          <mxGeometry relative="1" as="geometry" />
        </mxCell>
        <mxCell id="jYcGKKyAP8I1KN-inCQs-61" value="带宽回收vlan不为空" style="rhombus;whiteSpace=wrap;html=1;strokeColor=#DDA15E;fontSize=10;fontColor=#FEFAE0;fillColor=#BC6C25;" vertex="1" parent="WIyWlLk6GJQsqaUBKTNV-1">
          <mxGeometry x="1170" y="310" width="80" height="80" as="geometry" />
        </mxCell>
        <mxCell id="jYcGKKyAP8I1KN-inCQs-82" value="" style="edgeStyle=orthogonalEdgeStyle;rounded=0;orthogonalLoop=1;jettySize=auto;html=1;strokeColor=#DDA15E;fontSize=10;fontColor=#FEFAE0;fillColor=#BC6C25;" edge="1" parent="WIyWlLk6GJQsqaUBKTNV-1" source="jYcGKKyAP8I1KN-inCQs-65" target="jYcGKKyAP8I1KN-inCQs-81">
          <mxGeometry relative="1" as="geometry" />
        </mxCell>
        <mxCell id="jYcGKKyAP8I1KN-inCQs-65" value="&lt;div style=&quot;color: rgb(212, 212, 212); font-family: Consolas, &amp;quot;Courier New&amp;quot;, monospace; font-size: 14px;&quot;&gt;vlan database&lt;/div&gt;&lt;div style=&quot;color: rgb(212, 212, 212); font-family: Consolas, &amp;quot;Courier New&amp;quot;, monospace; font-size: 14px;&quot;&gt;&lt;span style=&quot;background-color: initial;&quot;&gt;vlan 带宽回收vlan&lt;/span&gt;&lt;br&gt;&lt;/div&gt;" style="shape=note;size=20;whiteSpace=wrap;html=1;strokeColor=#DDA15E;fontColor=#FEFAE0;fillColor=#BC6C25;" vertex="1" parent="WIyWlLk6GJQsqaUBKTNV-1">
          <mxGeometry x="1400" y="310" width="200" height="80" as="geometry" />
        </mxCell>
        <mxCell id="jYcGKKyAP8I1KN-inCQs-72" value="" style="edgeStyle=orthogonalEdgeStyle;rounded=0;orthogonalLoop=1;jettySize=auto;html=1;strokeColor=#DDA15E;fontSize=10;fontColor=#FEFAE0;fillColor=#BC6C25;" edge="1" parent="WIyWlLk6GJQsqaUBKTNV-1" source="jYcGKKyAP8I1KN-inCQs-70" target="jYcGKKyAP8I1KN-inCQs-71">
          <mxGeometry relative="1" as="geometry" />
        </mxCell>
        <mxCell id="jYcGKKyAP8I1KN-inCQs-73" value="Y" style="edgeLabel;html=1;align=center;verticalAlign=middle;resizable=0;points=[];fontSize=10;fontColor=#FEFAE0;" vertex="1" connectable="0" parent="jYcGKKyAP8I1KN-inCQs-72">
          <mxGeometry x="-0.1454" y="1" relative="1" as="geometry">
            <mxPoint as="offset" />
          </mxGeometry>
        </mxCell>
        <mxCell id="jYcGKKyAP8I1KN-inCQs-76" style="edgeStyle=orthogonalEdgeStyle;rounded=0;orthogonalLoop=1;jettySize=auto;html=1;entryX=0.5;entryY=0;entryDx=0;entryDy=0;strokeColor=#DDA15E;fontSize=10;fontColor=#FEFAE0;fillColor=#BC6C25;" edge="1" parent="WIyWlLk6GJQsqaUBKTNV-1" source="jYcGKKyAP8I1KN-inCQs-70" target="jYcGKKyAP8I1KN-inCQs-61">
          <mxGeometry relative="1" as="geometry" />
        </mxCell>
        <mxCell id="jYcGKKyAP8I1KN-inCQs-70" value="需要初始化" style="rhombus;whiteSpace=wrap;html=1;strokeColor=#DDA15E;fontSize=10;fontColor=#FEFAE0;fillColor=#BC6C25;" vertex="1" parent="WIyWlLk6GJQsqaUBKTNV-1">
          <mxGeometry x="1170" y="170" width="80" height="80" as="geometry" />
        </mxCell>
        <mxCell id="jYcGKKyAP8I1KN-inCQs-80" style="edgeStyle=orthogonalEdgeStyle;rounded=0;orthogonalLoop=1;jettySize=auto;html=1;entryX=0.5;entryY=0;entryDx=0;entryDy=0;strokeColor=#DDA15E;fontSize=10;fontColor=#FEFAE0;fillColor=#BC6C25;" edge="1" parent="WIyWlLk6GJQsqaUBKTNV-1" source="jYcGKKyAP8I1KN-inCQs-71" target="jYcGKKyAP8I1KN-inCQs-61">
          <mxGeometry relative="1" as="geometry">
            <Array as="points">
              <mxPoint x="1490" y="280" />
              <mxPoint x="1210" y="280" />
            </Array>
          </mxGeometry>
        </mxCell>
        <mxCell id="jYcGKKyAP8I1KN-inCQs-71" value="&lt;div style=&quot;color: rgb(212, 212, 212); font-family: Consolas, &amp;quot;Courier New&amp;quot;, monospace; font-size: 14px;&quot;&gt;no switchport&lt;/div&gt;&lt;div style=&quot;color: rgb(212, 212, 212); font-family: Consolas, &amp;quot;Courier New&amp;quot;, monospace; font-size: 14px;&quot;&gt;switchport&lt;/div&gt;&lt;div style=&quot;color: rgb(212, 212, 212); font-family: Consolas, &amp;quot;Courier New&amp;quot;, monospace; font-size: 14px;&quot;&gt;no static-channel-group&lt;/div&gt;&lt;div style=&quot;color: rgb(212, 212, 212); font-family: Consolas, &amp;quot;Courier New&amp;quot;, monospace; font-size: 14px;&quot;&gt;no channel-group&lt;/div&gt;" style="whiteSpace=wrap;html=1;fontSize=10;fillColor=#BC6C25;strokeColor=#DDA15E;fontColor=#FEFAE0;" vertex="1" parent="WIyWlLk6GJQsqaUBKTNV-1">
          <mxGeometry x="1380" y="180" width="220" height="60" as="geometry" />
        </mxCell>
        <mxCell id="jYcGKKyAP8I1KN-inCQs-81" value="每个物理口：&lt;br&gt;interface eth-0-%s &lt;br&gt;description %s &lt;br&gt;switchport trunk allowed vlan add 带宽回收vlan &lt;br&gt;loopback-detect enable &lt;br&gt;loopback-detect action shutdown" style="whiteSpace=wrap;html=1;fillColor=#BC6C25;strokeColor=#DDA15E;fontColor=#FEFAE0;" vertex="1" parent="WIyWlLk6GJQsqaUBKTNV-1">
          <mxGeometry x="1654" y="305" width="286" height="90" as="geometry" />
        </mxCell>
        <mxCell id="jYcGKKyAP8I1KN-inCQs-83" value="interface vlan 1&lt;br&gt;dhcp server 1&lt;br&gt;&amp;nbsp;ip address ip mask" style="whiteSpace=wrap;html=1;fontSize=10;fillColor=#BC6C25;strokeColor=#DDA15E;fontColor=#FEFAE0;" vertex="1" parent="WIyWlLk6GJQsqaUBKTNV-1">
          <mxGeometry x="1120" y="480" width="180" height="60" as="geometry" />
        </mxCell>
      </root>
    </mxGraphModel>
  </diagram>
</mxfile>
